<svg width="56" height="57" viewBox="0 0 56 57" fill="none" xmlns="http://www.w3.org/2000/svg">
<g clip-path="url(#clip0)">
<path d="M47.4496 14.04H39.2992V11.2865C39.2992 8.36537 38.1543 5.56392 36.1163 3.49839C34.0783 1.43286 31.3142 0.272461 28.4321 0.272461C25.5499 0.272461 22.7858 1.43286 20.7478 3.49839C18.7098 5.56392 17.5649 8.36537 17.5649 11.2865V14.04H9.41454C8.694 14.04 8.00298 14.3301 7.49348 14.8465C6.98399 15.3628 6.69775 16.0632 6.69775 16.7935V47.082C6.69775 49.2728 7.55645 51.3739 9.08494 52.9231C10.6134 54.4722 12.6865 55.3425 14.8481 55.3425H42.016C44.1776 55.3425 46.2507 54.4722 47.7792 52.9231C49.3077 51.3739 50.1664 49.2728 50.1664 47.082V16.7935C50.1664 16.0632 49.8801 15.3628 49.3706 14.8465C48.8611 14.3301 48.1701 14.04 47.4496 14.04ZM22.9985 11.2865C22.9985 9.82592 23.5709 8.42519 24.5899 7.39243C25.6089 6.35966 26.991 5.77946 28.4321 5.77946C29.8731 5.77946 31.2552 6.35966 32.2742 7.39243C33.2932 8.42519 33.8656 9.82592 33.8656 11.2865V14.04H22.9985V11.2865ZM44.7328 47.082C44.7328 47.8123 44.4465 48.5126 43.9371 49.029C43.4276 49.5454 42.7365 49.8355 42.016 49.8355H14.8481C14.1276 49.8355 13.4366 49.5454 12.9271 49.029C12.4176 48.5126 12.1313 47.8123 12.1313 47.082V19.547H17.5649V22.3005C17.5649 23.0308 17.8511 23.7311 18.3606 24.2475C18.8701 24.7639 19.5612 25.054 20.2817 25.054C21.0022 25.054 21.6933 24.7639 22.2028 24.2475C22.7122 23.7311 22.9985 23.0308 22.9985 22.3005V19.547H33.8656V22.3005C33.8656 23.0308 34.1519 23.7311 34.6614 24.2475C35.1709 24.7639 35.8619 25.054 36.5824 25.054C37.303 25.054 37.994 24.7639 38.5035 24.2475C39.013 23.7311 39.2992 23.0308 39.2992 22.3005V19.547H44.7328V47.082Z" fill="black"/>
</g>
<defs>
<clipPath id="clip0">
<rect width="55.07" height="55.8142" fill="white" transform="translate(0 0.282227)"/>
</clipPath>
</defs>
</svg>
