<svg width="189" height="75" viewBox="0 0 189 75" fill="none" xmlns="http://www.w3.org/2000/svg">
<path d="M109.542 10.9622H105.258V22.5822C105.258 26.1382 104.39 27.2022 101.814 27.2022C99.1816 27.2022 98.3416 26.1382 98.3416 22.5822V10.9622H94.0856V22.5822C94.0856 28.4902 96.1856 30.6462 102.01 30.6462C107.526 30.6462 109.542 28.4902 109.542 22.5822V10.9622ZM128.796 10.9622C127.844 10.9622 127.284 11.4382 127.06 12.3342L124.736 21.9662C124.54 22.8902 124.4 23.7862 124.232 24.6822H123.868C123.728 23.7862 123.588 22.8902 123.364 21.9662L121.012 12.3342C120.816 11.4382 120.256 10.9622 119.332 10.9622H115.216C114.18 10.9622 113.676 11.5222 113.62 12.5582L112.92 30.2822H116.952L117.512 14.2942H117.988L120.928 26.2502C121.124 27.1742 121.712 27.6222 122.664 27.6222H125.464C126.416 27.6222 127.004 27.1742 127.2 26.2502L130.112 14.2942H130.588L131.232 30.2822H135.264L134.508 12.5582C134.48 11.5222 133.948 10.9622 132.912 10.9622H128.796ZM149.268 25.2142L150.668 30.2822H155.008L149.436 12.0822C149.268 11.3822 148.68 10.9622 147.952 10.9622H143.92C143.22 10.9622 142.604 11.3822 142.436 12.0822L136.864 30.2822H141.232L142.632 25.2142H149.268ZM148.344 21.9102H143.528L145.152 16.0022L145.572 14.1822H146.328C146.412 14.7702 146.58 15.4142 146.72 16.0022L148.344 21.9102ZM172.519 10.9622C171.567 10.9622 171.007 11.4382 170.783 12.3342L168.459 21.9662C168.263 22.8902 168.123 23.7862 167.955 24.6822H167.591C167.451 23.7862 167.311 22.8902 167.087 21.9662L164.735 12.3342C164.539 11.4382 163.979 10.9622 163.055 10.9622H158.939C157.903 10.9622 157.399 11.5222 157.343 12.5582L156.643 30.2822H160.675L161.235 14.2942H161.711L164.651 26.2502C164.847 27.1742 165.435 27.6222 166.387 27.6222H169.187C170.139 27.6222 170.727 27.1742 170.923 26.2502L173.835 14.2942H174.311L174.955 30.2822H178.987L178.231 12.5582C178.203 11.5222 177.671 10.9622 176.635 10.9622H172.519ZM186.775 30.2822V10.9622H182.519V30.2822H186.775ZM112.143 50.0862C107.831 50.0862 106.263 51.1502 106.263 54.0342C106.263 56.2182 106.991 57.4782 109.623 58.2342L113.067 59.1582C114.439 59.5502 115.027 59.6062 115.027 60.4462C115.027 61.3422 114.383 61.4822 111.555 61.4822C109.707 61.4822 107.775 61.4822 106.767 61.4262L106.515 64.1142C109.175 64.5622 111.667 64.5902 112.703 64.5902C117.155 64.5902 119.031 63.7782 119.031 60.3622C119.031 57.9542 117.967 57.0022 115.615 56.3302L112.087 55.3782C110.771 55.0142 110.267 54.9862 110.267 54.1462C110.267 53.2222 110.771 53.2222 112.927 53.2222C114.663 53.2222 116.483 53.2502 118.247 53.2782L118.527 50.6182C116.819 50.3102 114.131 50.1142 112.143 50.0862ZM134.804 50.4782H130.688V60.0262C129.232 60.8102 128.252 61.1742 127.244 61.1742C126.124 61.1742 125.732 60.7542 125.76 59.5502V50.4782H121.616V60.8102C121.616 63.3582 122.932 64.6462 125.508 64.6462C127.496 64.6462 129.316 63.9182 131.22 62.3782L131.528 64.2822H134.804V50.4782ZM143.424 50.0862C139.112 50.0862 137.544 51.1502 137.544 54.0342C137.544 56.2182 138.272 57.4782 140.904 58.2342L144.348 59.1582C145.72 59.5502 146.308 59.6062 146.308 60.4462C146.308 61.3422 145.664 61.4822 142.836 61.4822C140.988 61.4822 139.056 61.4822 138.048 61.4262L137.796 64.1142C140.456 64.5622 142.948 64.5902 143.984 64.5902C148.436 64.5902 150.312 63.7782 150.312 60.3622C150.312 57.9542 149.248 57.0022 146.896 56.3302L143.368 55.3782C142.052 55.0142 141.548 54.9862 141.548 54.1462C141.548 53.2222 142.052 53.2222 144.208 53.2222C145.944 53.2222 147.764 53.2502 149.528 53.2782L149.808 50.6182C148.1 50.3102 145.412 50.1142 143.424 50.0862ZM162.557 50.0862C160.681 50.0862 158.749 50.8982 156.901 52.3542C157.041 51.5422 157.153 50.5062 157.153 49.4702L157.125 44.6822H152.981V64.2822H157.125V54.8462C158.777 53.9782 159.841 53.5862 160.961 53.5862C161.969 53.5862 162.305 53.9502 162.305 55.2102V64.2822H166.421V53.9222C166.421 51.4302 165.077 50.0862 162.557 50.0862ZM170.975 44.3742C170.163 44.3742 169.771 44.7942 169.771 45.5782V47.0902C169.771 47.9022 170.163 48.2942 170.975 48.2942H172.823C173.635 48.2942 174.027 47.9022 174.027 47.0902V45.5782C174.027 44.7942 173.635 44.3742 172.823 44.3742H170.975ZM173.971 64.2822V50.4782H169.855V64.2822H173.971Z" fill="black"/>
<path fill-rule="evenodd" clip-rule="evenodd" d="M1.75586 26.4487C3.26857 26.4312 4.02398 26.1156 6.36477 26.2395C7.82376 26.3168 9.30384 26.4999 10.6666 26.8027C13.2887 27.3853 15.5164 28.3254 17.5946 29.5159C19.7739 30.7645 21.5022 32.2912 22.9255 33.8199C24.3128 35.3099 25.4342 36.9108 26.381 38.7898C26.4944 39.0149 26.6816 39.4548 26.8046 39.612C27.2069 39.5617 28.2428 39.1393 28.7485 38.9998C35.3425 37.1812 42.4017 38.0315 48.1269 41.5807C50.3349 42.9495 52.2004 44.5216 53.8154 46.4679C54.2304 46.968 54.5846 47.4156 54.9621 47.9641C55.1442 48.2287 55.3118 48.4646 55.4973 48.7522C56.2652 49.9427 55.4858 49.5079 58.0973 49.4093C61.8176 49.2688 66.0326 50.0772 69.335 51.6839C69.7254 51.8738 70.4496 52.295 70.845 52.4289C71.1319 51.942 71.9902 49.5534 72.162 49.0404C72.5744 47.8087 72.8738 46.6372 73.1921 45.2932C73.9262 42.1945 73.9998 39.6587 73.9998 36.5523C73.9999 32.0998 73.032 28.4005 71.6896 24.5344C70.9566 22.4235 69.6675 20.0469 68.5307 18.1335L64.7083 13.0208L63.2579 11.4503C61.2362 9.4446 58.9931 7.68769 56.5733 6.17203C55.5566 5.53521 54.5902 5.00995 53.4939 4.46441C51.1141 3.28018 49.1672 2.55698 46.5405 1.83992C42.5498 0.750568 37.6364 0.348093 33.5027 0.769489C30.4123 1.08451 26.6979 1.89094 23.803 3.04699L21.2887 4.12392C19.2849 4.947 14.9578 7.67675 13.2551 9.2526C12.3133 10.1242 11.8206 10.4916 10.7627 11.5445L8.49078 14.0558C7.66057 14.983 6.15007 17.1416 5.49816 18.236C5.33702 18.5065 5.20854 18.7178 5.04828 18.9813L3.79581 21.3141C3.64842 21.6051 3.5652 21.842 3.41772 22.1309C3.00336 22.9424 1.92959 25.6707 1.75586 26.4487Z" fill="#D50000"/>
<path fill-rule="evenodd" clip-rule="evenodd" d="M17.5908 68.8914C17.8099 69.1799 19.4514 70.0021 19.9247 70.2757C20.3322 70.5112 21.9658 71.3358 22.4513 71.4726C22.6751 71.2783 22.835 71.0005 23.0184 70.7748C23.2067 70.5431 23.4033 70.3262 23.6011 70.0988C24.0112 69.6275 24.3979 69.2924 24.8792 68.8586C27.7399 66.2798 32.1554 64.788 36.3954 65.0506C40.5028 65.3051 44.3271 67.1207 46.8885 69.814C47.5463 70.5055 48.5848 71.7322 49.0635 72.7219C49.4942 72.7132 50.0872 72.4068 50.4575 72.2743C51.0672 72.0563 51.8158 71.802 52.4008 71.5082C52.9404 71.2371 53.8857 70.9031 54.3026 70.5869C53.8415 69.4247 52.1646 67.4353 51.3269 66.5269C44.8736 59.528 33.6051 57.805 25.148 62.2762C23.3932 63.2039 22.25 64.0729 20.9488 65.1355C20.1461 65.791 18.1172 67.8806 17.5908 68.8914Z" fill="#D50000"/>
<path fill-rule="evenodd" clip-rule="evenodd" d="M19.7583 46.6631C19.936 46.9065 20.6485 47.1992 20.9236 47.3649L23.2525 48.9429C23.5811 49.1901 24.0413 49.6409 24.3438 49.8145C25.1467 49.3549 26.2313 47.7815 29.6918 46.4666C34.3853 44.6834 39.4769 45.1487 43.8045 47.64C45.3533 48.5316 46.2167 49.3755 47.3744 50.5557C47.7279 50.916 48.0213 51.4118 48.3831 51.76C48.6957 51.7003 51.2744 50.3972 53.768 49.9545C53.6527 49.5116 52.7837 48.4583 52.4957 48.0964C51.9931 47.4649 51.5445 46.9957 51.003 46.4419C43.2412 38.505 29.8221 38.0202 21.3764 45.1542C20.8555 45.5942 20.1723 46.1418 19.7583 46.6631Z" fill="#D50000"/>
<path fill-rule="evenodd" clip-rule="evenodd" d="M1.37744 47.1551C1.4037 47.4883 1.60821 48.1318 1.71592 48.4599L2.82862 51.4969C2.90951 51.7006 3.03762 51.9322 3.081 52.1424C4.25225 51.8756 4.4785 51.6454 6.12589 51.407C11.4598 50.6351 16.6125 52.4981 20.1825 56.2669C21.1217 57.2583 21.8922 58.3647 22.5333 59.635C22.7612 60.0867 22.9105 60.5434 23.1453 60.9804C23.3513 60.9669 25.0082 60.0502 25.6194 59.7917C26.506 59.4168 27.3858 59.044 28.337 58.801C28.1577 57.9955 27.0236 56.1198 26.5698 55.4368C25.8267 54.3183 25.1164 53.5092 24.2888 52.6197C22.805 51.025 20.8395 49.5547 18.3921 48.3143C14.6923 46.4391 9.88635 45.6281 5.55467 46.228C4.79209 46.3336 4.15116 46.4489 3.41763 46.6106C2.75342 46.757 1.90729 47.0823 1.37744 47.1551Z" fill="#D50000"/>
<path fill-rule="evenodd" clip-rule="evenodd" d="M1.06159 28.6548L0.529813 31.3757C0.394604 32.1782 0.178223 33.5977 0.178223 34.3541C2.67427 33.6793 4.18164 33.4049 6.99072 33.6306C9.08659 33.7989 11.3175 34.6031 12.8672 35.412C15.7475 36.9152 18.1282 39.3748 19.4747 42.2169C19.6278 42.5399 19.8879 43.2925 20.0532 43.5493C20.2691 43.4302 22.109 41.9769 23.5553 41.1623C23.9412 40.9449 24.6316 40.6405 24.8653 40.4449C24.7683 39.8659 23.5672 37.974 23.2527 37.5114C19.3144 31.7179 12.512 28.2599 5.28896 28.2686C3.13689 28.2711 2.94869 28.4224 1.06159 28.6548Z" fill="#D50000"/>
<path fill-rule="evenodd" clip-rule="evenodd" d="M67.6469 59.2842C67.7605 59.179 67.9387 58.9152 68.0436 58.757L68.8004 57.6264C68.9415 57.4166 69.0457 57.2747 69.1777 57.06L70.2167 55.2684C70.337 55.0614 70.4694 54.9053 70.5293 54.6251C69.2529 54.0053 68.9926 53.7108 67.336 53.0398C59.8613 50.0124 51.1034 51.3546 44.9725 56.3927C44.4528 56.8197 42.7942 58.3079 42.543 58.7819L45.2589 59.812C46.0935 60.1704 47.4862 60.9753 47.8151 61.1008C48.1116 60.9475 49.3235 59.5871 51.7627 58.3823C56.3487 56.1172 62.0826 56.1767 66.5894 58.6188L67.5099 59.1513C67.6385 59.252 67.5576 59.1701 67.6469 59.2842Z" fill="#D50000"/>
<path fill-rule="evenodd" clip-rule="evenodd" d="M24.4761 72.2824C24.5374 72.3278 24.4704 72.2888 24.5916 72.3506L25.566 72.6983C26.9121 73.145 27.903 73.3776 29.2511 73.7267C29.5037 73.2239 31.2624 72.2744 31.9988 71.9939C33.1777 71.5449 34.526 71.3146 35.9551 71.4082C37.2404 71.4924 38.4291 71.851 39.4598 72.3734C40.293 72.7957 41.7423 73.8167 42.0049 74.3546C42.1761 74.2766 43.0418 74.2069 43.327 74.1582C43.7307 74.0892 44.2018 73.9902 44.6054 73.9235C45.0329 73.8528 46.8108 73.4827 47.0373 73.3499C46.3061 71.8492 44.2286 70.0525 42.7738 69.1394C38.7208 66.5957 33.4392 66.436 29.2131 68.4595C28.2059 68.9417 27.3035 69.5365 26.585 70.1171C26.0449 70.5536 24.7744 71.7156 24.4761 72.2824Z" fill="#D50000"/>
<path fill-rule="evenodd" clip-rule="evenodd" d="M25.8989 51.2455C25.9746 51.4959 26.043 51.4906 26.2359 51.6856C26.3753 51.8266 26.4568 51.9446 26.5873 52.09C27.1287 52.6938 27.7893 53.5754 28.2494 54.2661C28.425 54.5297 28.4396 54.6222 28.6339 54.7244C28.8739 54.5067 29.0276 54.2943 29.2723 54.0784C30.0299 53.4101 30.6739 52.959 31.6607 52.5C35.0672 50.9157 38.8398 51.6781 41.5966 54.0431C42.1051 54.4792 42.352 54.8933 42.8303 55.4498C43.0498 55.3896 43.5198 54.9314 43.7176 54.7664C44.3015 54.2792 46.4444 52.8317 46.5042 52.7526C45.8545 51.6023 43.7705 50.0075 42.574 49.302C38.1381 46.6865 32.3601 46.887 27.9882 49.5981C27.408 49.9579 26.2214 50.8228 25.8989 51.2455Z" fill="#D50000"/>
<path fill-rule="evenodd" clip-rule="evenodd" d="M0.0520524 36.5569C0.0520524 37.0059 -0.0443532 37.2619 0.0252352 37.7088C0.0874078 38.1079 0.0164163 38.5317 0.061272 38.9292C0.0972688 39.2483 0.0884099 39.7523 0.141764 40.105L0.241336 41.2677C1.02048 40.9274 1.09668 40.6959 2.34783 40.2889C5.23667 39.349 8.60241 39.966 10.8342 41.7715C11.5528 42.3528 12.1781 43.01 12.6761 43.769C13.2082 44.58 12.7746 44.3251 14.1343 44.6368C14.5539 44.7331 14.973 44.8424 15.3858 44.963L17.7818 45.7396L18.336 45.1524C18.3178 44.5665 17.6037 43.043 17.3507 42.5725C16.1321 40.306 14.311 38.5597 11.9201 37.2398C9.34199 35.8165 5.95576 35.2649 2.93364 35.785C1.2569 36.0736 1.0323 36.3315 0.0520524 36.5569Z" fill="#D50000"/>
<path fill-rule="evenodd" clip-rule="evenodd" d="M3.96387 53.9931C4.1376 54.369 4.30612 54.6205 4.48979 54.9927C4.67699 55.372 4.85413 55.6396 5.05596 55.9991L6.23531 57.8862C7.25709 57.4784 9.47526 57.5997 10.6124 57.8807C12.9553 58.4595 15.0377 59.9651 16.1852 62.0619C16.8957 63.36 17.1036 64.2588 17.2112 65.9488L19.1976 63.9583L21.356 62.1725C21.2084 61.5208 20.6546 60.4302 20.3309 59.8886C19.0834 57.8011 17.4423 56.1902 15.1368 54.9458C12.2275 53.3756 8.63643 52.889 5.29759 53.6465C4.88323 53.7405 4.3533 53.9416 3.96387 53.9931Z" fill="#D50000"/>
<path fill-rule="evenodd" clip-rule="evenodd" d="M63.3366 64.2183C63.8296 63.7087 64.523 63.1227 64.914 62.6127C65.2141 62.2214 65.9409 61.5443 66.3837 60.9173C66.2179 60.7078 65.7609 60.5108 65.5183 60.3801C65.1754 60.1955 64.9447 60.0873 64.5805 59.929C63.9322 59.6472 63.2634 59.4231 62.5067 59.2223C59.398 58.3974 55.8942 58.7202 53.007 60.0621C52.1307 60.4694 50.0123 61.7129 49.646 62.2987L51.3447 63.6843C51.6415 63.9443 51.8646 64.1638 52.1282 64.4117C52.3999 64.6672 52.6563 64.9887 52.9259 65.2081C53.3379 65.0845 54.6941 63.5485 57.6545 63.1729C58.7151 63.0384 59.7978 63.0889 60.811 63.2993C62.2697 63.6023 62.4551 63.9159 63.3366 64.2183Z" fill="#D50000"/>
<path fill-rule="evenodd" clip-rule="evenodd" d="M30.4009 58.2622C32.4549 58.0257 32.7961 57.7679 35.3223 57.7604C38.1506 57.752 38.798 58.1488 40.3206 58.2183C40.61 57.7937 41.2099 57.2008 41.3346 56.9584C40.8921 56.0455 39.7327 55.0416 38.7613 54.54C37.5915 53.936 36.1192 53.5906 34.5486 53.7938C32.6647 54.0374 30.6999 55.1526 29.8068 56.5616C29.623 56.8516 29.8604 57.1035 29.9989 57.4157C30.0917 57.6248 30.2642 58.1062 30.4009 58.2622Z" fill="#D50000"/>
<path fill-rule="evenodd" clip-rule="evenodd" d="M15.0371 67.1958C15.1495 65.7888 15.2503 65.1519 14.7651 63.8536C14.4235 62.9394 13.7924 62.0654 13.229 61.5544C12.598 60.982 11.9008 60.487 10.901 60.109C10.2644 59.8683 8.2433 59.4449 7.5835 59.7234C7.66002 59.9664 8.67134 61.1761 8.96733 61.5258C9.83886 62.5557 11.0124 63.6895 11.9605 64.6379L15.0371 67.1958Z" fill="#D50000"/>
<path fill-rule="evenodd" clip-rule="evenodd" d="M0.556641 43.5313C0.562694 43.7849 0.650882 44.0972 0.700147 44.3837C0.741916 44.6268 0.809901 44.9555 0.872113 45.2127C2.6762 44.5011 5.56468 44.0781 7.62166 44.0049C8.52415 43.9728 9.40062 44.0596 10.2403 44.0489C10.0969 43.6699 8.89377 42.8895 8.38962 42.6347C4.15487 40.4939 0.722354 43.4893 0.556641 43.5313Z" fill="#D50000"/>
<path fill-rule="evenodd" clip-rule="evenodd" d="M56.1436 69.5927C56.3442 69.5215 56.6893 69.3013 56.8752 69.1792C58.686 67.9904 59.2714 67.6835 61.0505 66.2401C61.2813 66.0529 61.4766 65.8592 61.696 65.7029C60.1914 65.2824 59.4468 64.922 57.5474 65.2617C56.4452 65.4589 54.8505 66.1688 54.3135 66.8195C54.4697 67.152 54.989 67.7721 55.2404 68.1578C55.4189 68.4316 55.9625 69.4083 56.1436 69.5927Z" fill="#D50000"/>
<path fill-rule="evenodd" clip-rule="evenodd" d="M32.1021 74.2285C32.5436 74.3294 33.2352 74.3851 33.7423 74.4191C35.9648 74.5682 36.531 74.6053 39.1189 74.6053C38.8264 74.0564 36.6395 73.4917 35.7644 73.4527C34.7075 73.4055 32.6757 73.6668 32.1021 74.2285Z" fill="#D50000"/>
</svg>
