<svg width="25" height="25" viewBox="0 0 25 25" fill="none" xmlns="http://www.w3.org/2000/svg">
<path d="M12.0127 5.85027C8.6046 5.85027 5.85563 8.59924 5.85563 12.0073C5.85563 15.4154 8.6046 18.1644 12.0127 18.1644C15.4208 18.1644 18.1697 15.4154 18.1697 12.0073C18.1697 8.59924 15.4208 5.85027 12.0127 5.85027ZM12.0127 16.0102C9.81029 16.0102 8.00979 14.2151 8.00979 12.0073C8.00979 9.79957 9.80493 8.00443 12.0127 8.00443C14.2204 8.00443 16.0156 9.79957 16.0156 12.0073C16.0156 14.2151 14.2151 16.0102 12.0127 16.0102ZM19.8577 5.59841C19.8577 6.39685 19.2147 7.03452 18.4216 7.03452C17.6232 7.03452 16.9855 6.39149 16.9855 5.59841C16.9855 4.80534 17.6285 4.16231 18.4216 4.16231C19.2147 4.16231 19.8577 4.80534 19.8577 5.59841ZM23.9356 7.05596C23.8445 5.13222 23.4051 3.42817 21.9958 2.02422C20.5918 0.62026 18.8878 0.180853 16.964 0.0843982C14.9814 -0.0281327 9.03865 -0.0281327 7.05596 0.0843982C5.13757 0.175495 3.43353 0.614901 2.02422 2.01886C0.614901 3.42282 0.180853 5.12686 0.0843982 7.0506C-0.0281327 9.03329 -0.0281327 14.976 0.0843982 16.9587C0.175495 18.8824 0.614901 20.5865 2.02422 21.9904C3.43353 23.3944 5.13222 23.8338 7.05596 23.9302C9.03865 24.0428 14.9814 24.0428 16.964 23.9302C18.8878 23.8391 20.5918 23.3997 21.9958 21.9904C23.3997 20.5865 23.8391 18.8824 23.9356 16.9587C24.0481 14.976 24.0481 9.03865 23.9356 7.05596ZM21.3742 19.0861C20.9562 20.1363 20.1471 20.9455 19.0914 21.3688C17.5106 21.9958 13.7596 21.8511 12.0127 21.8511C10.2658 21.8511 6.50938 21.9904 4.93395 21.3688C3.88366 20.9509 3.07451 20.1417 2.65118 19.0861C2.02422 17.5053 2.1689 13.7542 2.1689 12.0073C2.1689 10.2604 2.02958 6.50402 2.65118 4.92859C3.06915 3.8783 3.8783 3.06915 4.93395 2.64582C6.51474 2.01886 10.2658 2.16354 12.0127 2.16354C13.7596 2.16354 17.516 2.02422 19.0914 2.64582C20.1417 3.06379 20.9509 3.87294 21.3742 4.92859C22.0011 6.50938 21.8565 10.2604 21.8565 12.0073C21.8565 13.7542 22.0011 17.5106 21.3742 19.0861Z" fill="black"/>
</svg>
