<svg width="19" height="17" viewBox="0 0 19 17" fill="none" xmlns="http://www.w3.org/2000/svg">
<path d="M13.5493 0.0957198C12.7663 0.0938533 11.9934 0.272936 11.2909 0.618997C10.5885 0.965057 9.97545 1.46874 9.49973 2.09074C9.02396 1.46862 8.41086 0.964863 7.70827 0.618795C7.00568 0.272728 6.23262 0.0937117 5.44943 0.0957198C2.62825 0.0957198 0.324343 2.39871 0.313533 5.22932C0.302953 8.27567 1.7761 10.0717 2.96014 11.5155L3.21406 11.8257C4.61591 13.5542 8.96222 16.6587 9.14622 16.79C9.24957 16.8636 9.37325 16.9031 9.50008 16.9031C9.62691 16.9031 9.75059 16.8636 9.85393 16.79C10.0379 16.6587 14.3842 13.5542 15.7861 11.8257L16.0398 11.5155C17.2236 10.0717 18.697 8.27567 18.6864 5.22932C18.6754 2.39871 16.3712 0.0957198 13.5493 0.0957198Z" fill="#D20000"/>
</svg>
