<svg width="40" height="40" viewBox="0 0 40 40" fill="none" xmlns="http://www.w3.org/2000/svg">
<path fill-rule="evenodd" clip-rule="evenodd" d="M0.949219 13.9692C1.7669 13.9598 2.17523 13.7892 3.44052 13.8562C4.22917 13.8979 5.02921 13.9969 5.76583 14.1606C7.18321 14.4755 8.38737 14.9836 9.51068 15.6272C10.6887 16.3021 11.6229 17.1273 12.3922 17.9536C13.1421 18.759 13.7483 19.6244 14.2601 20.6401C14.3214 20.7617 14.4226 20.9995 14.4891 21.0845C14.7065 21.0573 15.2665 20.829 15.5398 20.7535C19.1042 19.7705 22.9199 20.2302 26.0146 22.1486C27.2082 22.8885 28.2165 23.7383 29.0895 24.7903C29.3138 25.0606 29.5053 25.3026 29.7094 25.5991C29.8078 25.7421 29.8984 25.8696 29.9987 26.0251C30.4137 26.6686 29.9924 26.4336 31.404 26.3803C33.415 26.3043 35.6934 26.7413 37.4785 27.6098C37.6895 27.7124 38.081 27.9401 38.2947 28.0125C38.4498 27.7493 38.9137 26.4582 39.0066 26.1808C39.2295 25.5151 39.3913 24.8818 39.5634 24.1554C39.9602 22.4804 40 21.1097 40 19.4306C40 17.0238 39.4769 15.0243 38.7512 12.9345C38.3551 11.7935 37.6582 10.5088 37.0437 9.47456L34.9776 6.71097L34.1936 5.86201C33.1008 4.77788 31.8883 3.8282 30.5803 3.00893C30.0307 2.6647 29.5083 2.38078 28.9157 2.0859C27.6293 1.44578 26.577 1.05486 25.1571 0.667267C23 0.0784316 20.3441 -0.139121 18.1097 0.0886589C16.4392 0.258938 14.4314 0.694842 12.8666 1.31973L11.5075 1.90185C10.4244 2.34676 8.08541 3.82229 7.16501 4.67409C6.65594 5.14521 6.38962 5.3438 5.81776 5.91293L4.58972 7.27037C4.14096 7.77157 3.32447 8.93836 2.97208 9.52994C2.88498 9.67616 2.81553 9.79036 2.72891 9.93281L2.05189 11.1938C1.97222 11.3511 1.92724 11.4791 1.84752 11.6353C1.62354 12.0739 1.04313 13.5487 0.949219 13.9692Z" fill="#CF000F"/>
<path fill-rule="evenodd" clip-rule="evenodd" d="M9.50903 36.911C9.62747 37.0669 10.5147 37.5113 10.7706 37.6592C10.9909 37.7865 11.8739 38.2322 12.1363 38.3062C12.2573 38.2012 12.3437 38.051 12.4429 37.929C12.5447 37.8037 12.6509 37.6865 12.7578 37.5636C12.9795 37.3088 13.1886 37.1277 13.4487 36.8932C14.995 35.4993 17.3818 34.6929 19.6737 34.8349C21.8939 34.9724 23.9611 35.9538 25.3456 37.4096C25.7012 37.7834 26.2626 38.4465 26.5213 38.9815C26.7541 38.9767 27.0746 38.8111 27.2748 38.7395C27.6044 38.6217 28.0091 38.4842 28.3252 38.3254C28.6169 38.1789 29.1279 37.9984 29.3532 37.8274C29.104 37.1992 28.1975 36.1239 27.7448 35.6329C24.2565 31.8497 18.1654 30.9184 13.594 33.3352C12.6455 33.8366 12.0275 34.3064 11.3241 34.8808C10.8903 35.2351 9.79358 36.3646 9.50903 36.911Z" fill="#CF000F"/>
<path fill-rule="evenodd" clip-rule="evenodd" d="M10.6809 24.8955C10.7769 25.027 11.1621 25.1852 11.3108 25.2748L12.5697 26.1277C12.7473 26.2614 12.996 26.5051 13.1596 26.5988C13.5935 26.3504 14.1798 25.5 16.0504 24.7893C18.5874 23.8254 21.3396 24.0769 23.6789 25.4235C24.516 25.9054 24.9827 26.3616 25.6086 26.9995C25.7996 27.1943 25.9582 27.4622 26.1538 27.6505C26.3227 27.6182 27.7167 26.9138 29.0645 26.6745C29.0022 26.4351 28.5325 25.8658 28.3768 25.6702C28.1051 25.3289 27.8626 25.0752 27.5699 24.7759C23.3744 20.4859 16.1208 20.2238 11.5556 24.0799C11.274 24.3177 10.9047 24.6137 10.6809 24.8955Z" fill="#CF000F"/>
<path fill-rule="evenodd" clip-rule="evenodd" d="M0.744873 25.1618C0.759065 25.342 0.869615 25.6898 0.927836 25.8672L1.52929 27.5088C1.57302 27.6189 1.64227 27.7441 1.66571 27.8577C2.29882 27.7135 2.42112 27.5891 3.3116 27.4602C6.19479 27.0429 8.98004 28.05 10.9098 30.0872C11.4175 30.6231 11.8339 31.2211 12.1804 31.9078C12.3036 32.1519 12.3843 32.3988 12.5113 32.635C12.6226 32.6277 13.5182 32.1322 13.8486 31.9925C14.3279 31.7898 14.8035 31.5883 15.3176 31.457C15.2207 31.0215 14.6076 30.0077 14.3624 29.6385C13.9607 29.0338 13.5767 28.5965 13.1294 28.1157C12.3273 27.2537 11.2649 26.4589 9.94196 25.7884C7.94208 24.7748 5.34428 24.3364 3.00283 24.6607C2.59063 24.7178 2.24418 24.7801 1.84768 24.8675C1.48864 24.9466 1.03128 25.1225 0.744873 25.1618Z" fill="#CF000F"/>
<path fill-rule="evenodd" clip-rule="evenodd" d="M0.57393 15.1621L0.286484 16.6329C0.213399 17.0667 0.0964355 17.8339 0.0964355 18.2428C1.44565 17.878 2.26045 17.7298 3.77886 17.8517C4.91177 17.9427 6.11765 18.3774 6.95535 18.8146C8.51224 19.6272 9.79912 20.9567 10.527 22.4929C10.6097 22.6675 10.7503 23.0743 10.8397 23.2131C10.9564 23.1488 11.9509 22.3632 12.7327 21.9229C12.9413 21.8054 13.3145 21.6408 13.4408 21.5351C13.3884 21.2221 12.7391 20.1995 12.5691 19.9495C10.4403 16.8179 6.76332 14.9487 2.859 14.9534C1.69572 14.9548 1.59399 15.0365 0.57393 15.1621Z" fill="#CF000F"/>
<path fill-rule="evenodd" clip-rule="evenodd" d="M36.5663 31.7179C36.6277 31.661 36.724 31.5184 36.7807 31.4329L37.1898 30.8218C37.2661 30.7084 37.3224 30.6316 37.3938 30.5156L37.9553 29.5471C38.0204 29.4353 38.092 29.3508 38.1243 29.1994C37.4344 28.8644 37.2937 28.7051 36.3982 28.3425C32.3578 26.706 27.6238 27.4315 24.3098 30.1549C24.0289 30.3857 23.1324 31.1901 22.9966 31.4464L24.4646 32.0032C24.9158 32.1969 25.6686 32.6321 25.8464 32.6999C26.0066 32.617 26.6617 31.8816 27.9802 31.2304C30.4591 30.006 33.5585 30.0381 35.9947 31.3582L36.4922 31.646C36.5617 31.7005 36.518 31.6562 36.5663 31.7179Z" fill="#CF000F"/>
<path fill-rule="evenodd" clip-rule="evenodd" d="M13.2305 38.744C13.2636 38.7686 13.2274 38.7475 13.2929 38.7809L13.8196 38.9688C14.5473 39.2102 15.0829 39.336 15.8115 39.5247C15.9481 39.2529 16.8987 38.7397 17.2968 38.5881C17.9341 38.3454 18.6629 38.2208 19.4354 38.2714C20.1301 38.317 20.7727 38.5108 21.3298 38.7932C21.7802 39.0214 22.5635 39.5733 22.7055 39.8641C22.7981 39.8219 23.266 39.7843 23.4202 39.7579C23.6384 39.7206 23.893 39.6671 24.1112 39.6311C24.3423 39.5929 25.3033 39.3928 25.4257 39.321C25.0305 38.5098 23.9075 37.5386 23.1211 37.0451C20.9303 35.6702 18.0754 35.5838 15.791 36.6776C15.2466 36.9382 14.7588 37.2597 14.3704 37.5736C14.0785 37.8095 13.3917 38.4376 13.2305 38.744Z" fill="#CF000F"/>
<path fill-rule="evenodd" clip-rule="evenodd" d="M13.9988 27.3732C14.0397 27.5085 14.0766 27.5057 14.1809 27.6111C14.2563 27.6873 14.3003 27.751 14.3709 27.8297C14.6635 28.156 15.0206 28.6326 15.2693 29.006C15.3642 29.1484 15.3721 29.1985 15.4772 29.2537C15.6069 29.136 15.69 29.0212 15.8222 28.9045C16.2317 28.5432 16.5799 28.2994 17.1133 28.0513C18.9546 27.1949 20.9938 27.607 22.484 28.8854C22.7589 29.1211 22.8923 29.345 23.1509 29.6458C23.2695 29.6133 23.5236 29.3656 23.6305 29.2764C23.9461 29.013 25.1045 28.2306 25.1367 28.1878C24.7856 27.566 23.6591 26.704 23.0123 26.3226C20.6146 24.9088 17.4913 25.0172 15.1281 26.4827C14.8145 26.6771 14.1731 27.1447 13.9988 27.3732Z" fill="#CF000F"/>
<path fill-rule="evenodd" clip-rule="evenodd" d="M0.0281364 19.4335C0.0281364 19.6762 -0.0239747 19.8146 0.0136406 20.0561C0.0472475 20.2718 0.00887369 20.5009 0.03312 20.7158C0.0525777 20.8883 0.0477892 21.1607 0.0766291 21.3514L0.130452 21.9798C0.55161 21.7959 0.5928 21.6708 1.2691 21.4507C2.83063 20.9427 4.64995 21.2762 5.85633 22.2522C6.24475 22.5664 6.58275 22.9216 6.85195 23.3319C7.13954 23.7702 6.90518 23.6324 7.64016 23.8009C7.86698 23.853 8.09349 23.9121 8.31667 23.9773L9.61178 24.397L9.91134 24.0796C9.90154 23.7629 9.51553 22.9395 9.37876 22.6851C8.72008 21.46 7.73567 20.516 6.44329 19.8026C5.04972 19.0333 3.21933 18.7351 1.58575 19.0163C0.679407 19.1723 0.558002 19.3117 0.0281364 19.4335Z" fill="#CF000F"/>
<path fill-rule="evenodd" clip-rule="evenodd" d="M2.14233 28.8578C2.23624 29.061 2.32733 29.1969 2.42662 29.3981C2.5278 29.6032 2.62356 29.7478 2.73265 29.9421L3.37014 30.9621C3.92246 30.7417 5.12147 30.8073 5.73616 30.9591C7.00258 31.272 8.12818 32.0858 8.74849 33.2192C9.13251 33.9209 9.24492 34.4067 9.30303 35.3202L10.3768 34.2443L11.5435 33.279C11.4637 32.9267 11.1643 32.3373 10.9894 32.0445C10.315 30.9161 9.42795 30.0454 8.18177 29.3728C6.60918 28.524 4.66805 28.261 2.86327 28.6704C2.63929 28.7213 2.35284 28.83 2.14233 28.8578Z" fill="#CF000F"/>
<path fill-rule="evenodd" clip-rule="evenodd" d="M34.2363 34.3849C34.5028 34.1094 34.8775 33.7927 35.0889 33.517C35.2511 33.3055 35.644 32.9395 35.8833 32.6005C35.7937 32.4873 35.5467 32.3809 35.4156 32.3102C35.2302 32.2104 35.1055 32.1519 34.9086 32.0664C34.5582 31.914 34.1967 31.7929 33.7876 31.6844C32.1073 31.2385 30.2133 31.4129 28.6527 32.1383C28.179 32.3585 27.0339 33.0306 26.8359 33.3473L27.7542 34.0962C27.9146 34.2368 28.0352 34.3554 28.1777 34.4894C28.3245 34.6275 28.4631 34.8013 28.6089 34.9199C28.8315 34.8531 29.5647 34.0228 31.1648 33.8198C31.7382 33.7471 32.3234 33.7744 32.8711 33.8881C33.6595 34.0519 33.7598 34.2214 34.2363 34.3849Z" fill="#CF000F"/>
<path fill-rule="evenodd" clip-rule="evenodd" d="M16.4328 31.1671C17.5431 31.0392 17.7275 30.8998 19.0931 30.8957C20.6219 30.8912 20.9718 31.1057 21.7948 31.1433C21.9512 30.9137 22.2755 30.5931 22.3429 30.462C22.1037 29.9683 21.477 29.4254 20.952 29.1542C20.3196 28.8275 19.5238 28.6407 18.6748 28.7506C17.6565 28.8823 16.5944 29.4854 16.1117 30.2474C16.0123 30.4042 16.1407 30.5405 16.2155 30.7093C16.2657 30.8223 16.3589 31.0827 16.4328 31.1671Z" fill="#CF000F"/>
<path fill-rule="evenodd" clip-rule="evenodd" d="M8.12786 35.9944C8.18862 35.2338 8.24309 34.8896 7.98084 34.1878C7.79619 33.6936 7.45505 33.2212 7.15051 32.945C6.80944 32.6356 6.43257 32.368 5.89213 32.1637C5.548 32.0336 4.45553 31.8047 4.09888 31.9552C4.14024 32.0866 4.6869 32.7405 4.84689 32.9295C5.318 33.4862 5.95234 34.0991 6.46485 34.6117L8.12786 35.9944Z" fill="#CF000F"/>
<path fill-rule="evenodd" clip-rule="evenodd" d="M0.300781 23.2033C0.304053 23.3404 0.351722 23.5093 0.378352 23.6642C0.40093 23.7957 0.437679 23.9734 0.471307 24.1125C1.44649 23.7277 3.00783 23.499 4.11972 23.4594C4.60754 23.442 5.08131 23.4889 5.53521 23.4832C5.45766 23.2782 4.80734 22.8562 4.53483 22.7184C2.24577 21.5607 0.390356 23.1805 0.300781 23.2033Z" fill="#CF000F"/>
<path fill-rule="evenodd" clip-rule="evenodd" d="M30.3474 37.2904C30.4559 37.2519 30.6424 37.1328 30.7429 37.0668C31.7217 36.4239 32.0381 36.258 32.9998 35.4774C33.1246 35.3762 33.2301 35.2715 33.3487 35.1869C32.5354 34.9595 32.1329 34.7646 31.1062 34.9484C30.5104 35.055 29.6484 35.4389 29.3582 35.7907C29.4426 35.9705 29.7233 36.3059 29.8592 36.5144C29.9557 36.6625 30.2495 37.1907 30.3474 37.2904Z" fill="#CF000F"/>
<path fill-rule="evenodd" clip-rule="evenodd" d="M17.3528 39.7963C17.5915 39.8509 17.9653 39.881 18.2394 39.8994C19.4408 39.98 19.7468 40 21.1457 40C20.9876 39.7033 19.8055 39.398 19.3324 39.3769C18.7611 39.3515 17.6628 39.4927 17.3528 39.7963Z" fill="#CF000F"/>
</svg>
