<svg width="26" height="26" viewBox="0 0 26 26" fill="none" xmlns="http://www.w3.org/2000/svg">
<g clip-path="url(#clip0)">
<path d="M22.547 2.53402C21.9021 1.93988 19.2919 0.0457413 13.4724 0.0203507C13.4724 0.0203507 6.61186 -0.390977 3.27045 2.67621C1.41186 4.5348 0.756777 7.26176 0.685683 10.6387C0.61459 14.0157 0.528261 20.343 6.62709 22.0594H6.63217L6.62709 24.6797C6.62709 24.6797 6.58646 25.7411 7.28725 25.9543C8.13022 26.2184 8.62787 25.411 9.43529 24.5426C9.87709 24.0653 10.4865 23.3645 10.9486 22.8313C15.1228 23.1817 18.3271 22.3793 18.6927 22.2625C19.5357 21.9883 24.304 21.3789 25.0759 15.0516C25.8783 8.52113 24.69 4.3977 22.547 2.53402ZM23.2529 14.5743C22.5978 19.8555 18.7333 20.1907 18.0224 20.4192C17.7177 20.5157 14.8994 21.2164 11.3599 20.9879C11.3599 20.9879 8.71928 24.1719 7.89662 24.9996C7.62748 25.2688 7.33295 25.2434 7.33803 24.7102C7.33803 24.3598 7.35834 20.3582 7.35834 20.3582C7.35326 20.3582 7.35326 20.3582 7.35834 20.3582C2.18881 18.9262 2.4935 13.5383 2.54936 10.72C2.60521 7.9016 3.13842 5.59105 4.71264 4.03715C7.54115 1.47269 13.3658 1.85355 13.3658 1.85355C18.2865 1.87387 20.6427 3.35668 21.1912 3.85434C23.004 5.40824 23.9283 9.12543 23.2529 14.5743ZM16.1943 10.4711C16.2146 10.9079 15.5595 10.9383 15.5392 10.5016C15.4833 9.38441 14.9603 8.84105 13.8837 8.78012C13.447 8.75473 13.4876 8.09965 13.9193 8.12504C15.3361 8.20121 16.1232 9.01371 16.1943 10.4711ZM17.2251 11.045C17.2759 8.89184 15.9302 7.2059 13.3759 7.01801C12.9443 6.98754 12.99 6.33246 13.4216 6.36293C16.3669 6.57621 17.9361 8.60238 17.8802 11.0602C17.8751 11.4969 17.215 11.4766 17.2251 11.045ZM19.6119 11.7254C19.6169 12.1621 18.9568 12.1672 18.9568 11.7305C18.9263 7.59184 16.1689 5.33715 12.8224 5.31176C12.3908 5.30668 12.3908 4.65668 12.8224 4.65668C16.565 4.68207 19.5763 7.26684 19.6119 11.7254ZM19.038 16.7071V16.7172C18.4896 17.6821 17.4638 18.7485 16.4076 18.4082L16.3974 18.393C15.3259 18.0934 12.8021 16.7934 11.2076 15.5239C10.3849 14.8739 9.63334 14.1071 9.05443 13.3707C8.53139 12.7157 8.00326 11.9387 7.49037 11.0043C6.40873 9.04926 6.17006 8.17582 6.17006 8.17582C5.82982 7.11957 6.89115 6.09379 7.86107 5.54535H7.87123C8.33842 5.3016 8.78529 5.38285 9.0849 5.7434C9.0849 5.7434 9.71459 6.49496 9.98373 6.86566C10.2376 7.21098 10.5779 7.76449 10.7556 8.07426C11.0654 8.62777 10.8724 9.19145 10.5677 9.42504L9.95834 9.91254C9.64857 10.1614 9.6892 10.6235 9.6892 10.6235C9.6892 10.6235 10.5931 14.0411 13.9701 14.9043C13.9701 14.9043 14.4322 14.945 14.681 14.6352L15.1685 14.0258C15.4021 13.7211 15.9658 13.5282 16.5193 13.8379C17.2658 14.2594 18.2154 14.9145 18.8451 15.5086C19.2005 15.7981 19.2818 16.2399 19.038 16.7071Z" fill="black"/>
</g>
<defs>
<clipPath id="clip0">
<rect width="26" height="26" fill="white"/>
</clipPath>
</defs>
</svg>
